<?xml version="1.0" standalone="no"?>
<!DOCTYPE svg PUBLIC "-//W3C//DTD SVG 20010904//EN"
 "http://www.w3.org/TR/2001/REC-SVG-20010904/DTD/svg10.dtd">
<svg version="1.0" xmlns="http://www.w3.org/2000/svg"
 width="334.000000pt" height="334.000000pt" viewBox="0 0 334.000000 334.000000"
 preserveAspectRatio="xMidYMid meet">
<metadata>
Created by potrace 1.11, written by Peter Selinger 2001-2013
</metadata>
<g transform="translate(0.000000,334.000000) scale(0.100000,-0.100000)"
fill="#000000" stroke="none">
<path d="M1315 3295 c-157 -25 -330 -73 -408 -112 -63 -31 -114 -85 -127 -132
-18 -69 -15 -155 9 -205 26 -54 76 -107 114 -124 35 -15 35 -40 0 -48 -45 -11
-114 -66 -136 -109 -15 -30 -20 -59 -21 -115 0 -88 12 -130 58 -195 26 -36 32
-53 27 -72 -4 -15 -3 -47 3 -73 9 -45 8 -50 -18 -80 -43 -52 -55 -83 -62 -162
-4 -52 -2 -82 6 -98 10 -19 10 -25 -3 -35 -36 -26 -38 -184 -3 -260 26 -56 88
-123 123 -131 26 -7 31 -24 8 -24 -23 0 -118 -63 -143 -95 -31 -39 -43 -91
-35 -154 5 -45 4 -53 -8 -46 -8 5 -4 -3 9 -17 12 -13 22 -30 22 -36 0 -22 42
-102 51 -97 10 7 31 -30 22 -39 -4 -3 -7 -41 -9 -84 -2 -93 0 -84 -23 -109
-51 -55 -69 -162 -42 -259 43 -159 279 -265 676 -304 129 -13 345 -16 416 -7
24 4 67 9 94 13 176 22 382 106 480 196 72 65 95 116 95 207 0 58 4 74 31 116
44 69 51 92 50 158 -1 74 -18 114 -70 165 l-41 40 20 48 c12 26 31 55 43 63
53 37 115 104 137 148 19 38 24 63 24 120 -1 63 -4 77 -29 110 -32 43 -54 64
-106 98 -35 23 -37 28 -44 93 -5 52 -3 77 8 98 8 16 15 62 16 104 2 63 7 82
30 121 43 69 54 112 47 182 -3 34 -5 65 -5 69 -1 4 -23 32 -50 62 l-50 55 18
46 c13 34 32 58 73 90 101 79 138 146 133 238 -7 103 -47 163 -142 211 -29 15
-33 21 -34 59 -2 149 -131 232 -459 296 -30 6 -68 13 -85 17 -16 4 -158 8
-315 10 -213 2 -308 -1 -375 -11z"/>
</g>
</svg>
